<?xml version="1.0" encoding="UTF-8" standalone="no"?>
<svg
   xmlns:dc="http://purl.org/dc/elements/1.1/"
   xmlns:cc="http://creativecommons.org/ns#"
   xmlns:rdf="http://www.w3.org/1999/02/22-rdf-syntax-ns#"
   xmlns:svg="http://www.w3.org/2000/svg"
   xmlns="http://www.w3.org/2000/svg"
   xmlns:xlink="http://www.w3.org/1999/xlink"
   xmlns:sodipodi="http://sodipodi.sourceforge.net/DTD/sodipodi-0.dtd"
   xmlns:inkscape="http://www.inkscape.org/namespaces/inkscape"
   width="99.107712mm"
   height="179.994mm"
   viewBox="0 0 99.107712 179.994"
   version="1.1"
   id="svg8"
   inkscape:export-filename="C:\Users\hjo\pythiaLogo.png"
   inkscape:export-xdpi="96"
   inkscape:export-ydpi="96"
   inkscape:version="1.0.1 (3bc2e813f5, 2020-09-07)"
   sodipodi:docname="pythiaLogo.svg">
  <defs
     id="defs2">
    <linearGradient
       inkscape:collect="always"
       id="linearGradient941">
      <stop
         style="stop-color:#e64b1b;stop-opacity:1"
         offset="0"
         id="stop937" />
      <stop
         style="stop-color:#880000;stop-opacity:1"
         offset="1"
         id="stop939" />
    </linearGradient>
    <inkscape:path-effect
       effect="bspline"
       id="path-effect935"
       is_visible="true"
       lpeversion="1"
       weight="33.333333"
       steps="2"
       helper_size="0"
       apply_no_weight="true"
       apply_with_weight="true"
       only_selected="false" />
    <style
       id="style833">.cls-1{fill:#1697f6;}.cls-2{fill:#7bc6ff;}.cls-3{fill:#1867c0;}.cls-4{fill:#aeddff;}</style>
    <linearGradient
       inkscape:collect="always"
       xlink:href="#linearGradient941"
       id="linearGradient943"
       x1="34.271111"
       y1="8.0231562"
       x2="55.13961"
       y2="-14.148837"
       gradientUnits="userSpaceOnUse"
       gradientTransform="matrix(0.79981613,0,0,0.73072492,9.4645473,9.1716906)" />
  </defs>
  <sodipodi:namedview
     id="base"
     pagecolor="#ffffff"
     bordercolor="#666666"
     borderopacity="1.0"
     inkscape:pageopacity="0.0"
     inkscape:pageshadow="2"
     inkscape:zoom="0.49497475"
     inkscape:cx="-231.33693"
     inkscape:cy="98.501648"
     inkscape:document-units="mm"
     inkscape:current-layer="g857"
     inkscape:document-rotation="0"
     showgrid="false"
     fit-margin-top="0"
     fit-margin-left="0"
     fit-margin-right="0"
     fit-margin-bottom="0"
     inkscape:window-width="1920"
     inkscape:window-height="1017"
     inkscape:window-x="-8"
     inkscape:window-y="-8"
     inkscape:window-maximized="1" />
  <metadata
     id="metadata5">
    <rdf:RDF>
      <cc:Work
         rdf:about="">
        <dc:format>image/svg+xml</dc:format>
        <dc:type
           rdf:resource="http://purl.org/dc/dcmitype/StillImage" />
        <dc:title></dc:title>
      </cc:Work>
    </rdf:RDF>
  </metadata>
  <g
     inkscape:label="Layer 1"
     inkscape:groupmode="layer"
     id="layer1"
     transform="translate(-57.21447,-56.391598)">
    <g
       id="g857"
       transform="matrix(2.4590051,0,0,2.2300595,-11.575521,81.26488)">
      <polyline
         class="cls-1"
         points="43.75 0 23.31 0 43.75 48.32"
         id="polyline839"
         transform="matrix(0.99639994,0,0,0.79413422,4.7486422,31.186441)"
         style="fill:#122c44;fill-opacity:1" />
      <polyline
         class="cls-3"
         points="43.75 0 64.19 0 43.75 48.32"
         id="polyline843"
         transform="matrix(0.99639994,0,0,0.79413422,4.3198008,31.186441)"
         style="fill:#3a6385;fill-opacity:1" />
      <path
         style="fill:url(#linearGradient943);fill-opacity:1;stroke:#fd8b66;stroke-width:0.0863764px;stroke-linecap:butt;stroke-linejoin:miter;stroke-opacity:1"
         d="m 42.540253,29.688899 c -0.50706,-0.496223 -1.521269,-1.488755 -2.361636,-2.656444 -0.840368,-1.16769 -1.506834,-2.5105 -1.883563,-3.853357 -0.376729,-1.342858 -0.46366,-2.685668 -0.304292,-3.970153 0.159367,-1.284485 0.565043,-2.510531 1.028687,-3.561469 0.463643,-1.050938 0.985225,-1.926684 1.593768,-2.671105 0.608543,-0.744421 1.303984,-1.357443 1.999454,-1.912102 0.695469,-0.554659 1.390913,-1.050915 1.477824,-0.875736 0.08691,0.17518 -0.434672,1.021735 -0.81138,1.912122 -0.376708,0.890387 -0.608522,1.824517 -0.709934,2.904651 -0.101413,1.080135 -0.07244,2.306179 0.115935,3.459286 0.188371,1.153107 0.536093,2.233194 1.202603,3.386291 0.666511,1.153096 1.651721,2.379141 2.115325,2.685652 0.463604,0.30651 0.405651,-0.306512 0.420132,-1.094716 0.01448,-0.788205 0.101413,-1.751526 0.391186,-2.729493 0.289773,-0.977967 0.782378,-1.97048 1.318469,-2.831667 0.536092,-0.861187 1.115628,-1.590976 1.738699,-1.678513 0.623071,-0.08754 1.289537,0.467101 2.08642,1.226111 0.796882,0.75901 1.72414,1.722331 2.332637,2.802458 0.608498,1.080128 0.898265,2.276981 0.912731,3.327885 0.01446,1.050903 -0.246326,1.95584 -0.6665,2.787801 -0.420174,0.831962 -0.999711,1.590942 -1.695161,2.247757 -0.69545,0.656815 -1.5068,1.211454 -1.767554,1.517988 -0.260754,0.306534 0.02902,0.364917 0.449173,0.32111 0.420157,-0.04381 0.970715,-0.189765 2.173289,-0.613059 1.202574,-0.423294 3.057088,-1.12389 4.650833,-2.131023 1.593746,-1.007132 2.926679,-2.320752 3.781506,-3.400848 0.854827,-1.080097 1.231526,-1.926653 1.535791,-2.860799 0.304266,-0.934145 0.53608,-1.95585 0.492641,-2.831601 -0.04344,-0.87575 -0.362184,-1.605537 -0.738882,-2.291561 -0.376699,-0.686024 -0.811351,-1.328239 -1.492328,-2.335381 -0.680977,-1.007142 -1.608234,-2.379143 -2.15883,-3.503049 C 59.216701,9.3420297 59.04284,8.4662828 59.01385,7.5321129 58.98486,6.5979429 59.100767,5.6054311 59.477478,4.7004354 59.85419,3.7954398 60.491679,2.9780765 61.36103,2.2628496 62.230381,1.5476227 63.3315,0.93460019 63.824133,0.5405623 64.316766,0.14652442 64.200858,-0.0286246 63.548874,-0.29139169 62.89689,-0.55415878 61.70884,-0.90445767 60.535236,-1.0650303 59.361632,-1.2256028 58.20256,-1.1964114 56.89855,-0.96287746 c -1.30401,0.23353394 -2.75285,0.671407 -3.448341,0.75902066 -0.69549,0.0876137 -0.637536,-0.17510839 -0.579577,-0.67137465 0.05796,-0.49626625 0.115912,-1.22605455 -0.05793,-1.99964135 -0.173839,-0.7735869 -0.579514,-1.5909501 -1.11559,-2.408343 -0.536075,-0.8173929 -1.202541,-1.6347558 -2.028392,-2.3207941 -0.825852,-0.6860384 -1.811064,-1.2406785 -2.810792,-1.7223603 -0.999729,-0.4816817 -2.013917,-0.8903628 -2.926713,-1.1968898 -0.912797,-0.306527 -1.724146,-0.510868 -2.071877,-0.569229 -0.347731,-0.05836 -0.231823,0.02922 -10e-7,0.21897 0.231821,0.189755 0.579542,0.48167 0.956247,0.846582 0.376705,0.364911 0.78238,0.8027835 1.144581,1.3866407 0.362202,0.5838573 0.680947,1.3136459 0.796829,2.1164246 0.115882,0.8027786 0.02895,1.6785251 -0.275318,2.4666877 -0.304269,0.7881627 -0.825851,1.4887597 -1.52131,2.2331575 -0.695458,0.7443979 -1.564761,1.53256962 -2.622442,2.3499538 -1.057681,0.8173842 -2.303682,1.6639378 -3.375864,2.539717 -1.072182,0.8757792 -1.970463,1.7807173 -2.781843,2.7732698 -0.81138,0.9925526 -1.535799,2.0726387 -2.057396,3.2257602 -0.521597,1.1531217 -0.840342,2.3791657 -1.043179,3.7220287 -0.202837,1.342863 -0.289768,2.80244 -0.231796,3.970143 0.05797,1.167704 0.260808,2.04345 0.695491,3.108975 0.434683,1.065526 1.10115,2.320764 1.85458,3.488456 0.753429,1.167691 1.593755,2.247777 2.680433,3.225707 1.086678,0.977931 2.419609,1.853676 3.622182,2.437502 1.202572,0.583827 2.274713,0.875742 2.810743,1.021689 0.536031,0.145947 0.536035,0.145947 0.02898,-0.350276 z"
         id="path933"
         inkscape:path-effect="#path-effect935"
         inkscape:original-d="m 43.047313,30.185122 c -1.014121,-0.992445 -2.028329,-1.984978 -3.042623,-2.977595 -0.666406,-1.342779 -1.332872,-2.685589 -1.999437,-4.028513 -0.08685,-1.342779 -0.173779,-2.685589 -0.260797,-4.028514 0.405777,-1.226006 0.811453,-2.452052 1.217049,-3.678207 0.521689,-0.875694 1.043271,-1.75144 1.564778,-2.627291 0.695557,-0.612961 1.390999,-1.225982 2.08637,-1.839104 0.695557,-0.49619 1.391001,-0.992446 2.086371,-1.4887987 -0.521517,0.8466757 -1.0431,1.6932307 -1.564778,2.5397147 -0.231738,0.934253 -0.463551,1.868383 -0.695457,2.802444 0.02907,1.226181 0.05805,2.452225 0.08693,3.678208 0.347821,1.080216 0.695543,2.160303 1.043184,3.240324 0.985336,1.226182 1.970547,2.452226 2.955692,3.678209 -0.05787,-0.612961 -0.115823,-1.225983 -0.173864,-1.839105 0.08701,-0.963272 0.173951,-1.926593 0.260797,-2.89002 0.49271,-0.992464 0.985316,-1.984976 1.477845,-2.977596 0.579646,-0.72973 1.159181,-1.459519 1.738642,-2.189409 0.666579,0.554748 1.333044,1.109388 1.999438,1.663951 0.927381,0.963446 1.854638,1.926767 2.781828,2.89002 0.289865,1.196988 0.579633,2.393841 0.86932,3.590631 -0.260715,0.905062 -0.521506,1.809999 -0.782388,2.714868 -0.579473,0.759097 -1.15901,1.518077 -1.738643,2.276986 -0.811296,0.554746 -1.622646,1.109386 -2.434098,1.66395 0.289864,0.05847 0.579634,0.116855 0.869321,0.175152 0.550667,-0.145877 1.101225,-0.291834 1.65171,-0.437881 1.854675,-0.700539 3.709189,-1.401135 5.563655,-2.101833 1.333071,-1.313585 2.666003,-2.627205 3.998878,-3.940936 0.376797,-0.846503 0.753497,-1.693058 1.130117,-2.539716 C 63.96906,20.493404 64.200876,19.4717 64.432608,18.449889 64.113937,17.720158 63.795193,16.990371 63.476355,16.26048 63.041776,15.618327 62.607123,14.976113 62.172376,14.3338 61.245168,12.961829 60.317912,11.589827 59.390548,10.21771 59.216768,9.3420164 59.042907,8.4662696 58.868957,7.5904197 58.984954,6.5979539 59.100862,5.6054422 59.216685,4.612823 c 0.6376,-0.8173091 1.27509,-1.634672 1.912506,-2.4521381 1.101247,-0.6129602 2.202366,-1.22598279 3.303421,-1.83910319 -0.115827,-0.17507018 -0.231734,-0.35021932 -0.347729,-0.52545835 -1.18801,-0.3502254 -2.37606,-0.70052453 -3.564218,-1.05091666 -1.159031,0.029278 -2.318103,0.058471 -3.477283,0.087576 -1.448811,0.43797743 -2.897651,0.87585026 -4.346605,1.31364492 0.05805,-0.26264697 0.115996,-0.52537068 0.173865,-0.78818659 0.05805,-0.72973073 0.115994,-1.45951973 0.173863,-2.18940863 -0.405605,-0.8173092 -0.811279,-1.6346728 -1.217049,-2.4521394 -0.666407,-0.8173091 -1.332873,-1.634672 -1.999438,-2.4521378 -0.985163,-0.5545746 -1.970375,-1.1092144 -2.955691,-1.6639516 -1.014143,-0.4086108 -2.028331,-0.8172906 -3.042623,-1.2260666 -0.811298,-0.204263 -1.622647,-0.408604 -2.4341,-0.613036 0.115998,0.08766 0.231903,0.175239 0.347728,0.262729 0.347823,0.292014 0.695543,0.58393 1.043185,0.875764 0.405777,0.4379778 0.811453,0.8758494 1.21705,1.3136444 0.318843,0.7299051 0.637588,1.4596935 0.956253,2.1894104 -0.08685,0.8758672 -0.173778,1.7516139 -0.260796,2.6272908 -0.521517,0.7007112 -1.0431,1.4013079 -1.564778,2.1018317 -0.869253,0.7882904 -1.738557,1.57646166 -2.607963,2.36456256 -1.24597,0.84667604 -2.491971,1.69323034 -3.738085,2.53971544 -0.89823,0.9050604 -1.796512,1.8099977 -2.694895,2.7148665 -0.724364,1.080217 -1.448782,2.160304 -2.173303,3.240326 -0.318672,1.2261802 -0.637416,2.4522242 -0.956253,3.6782072 -0.08685,1.459722 -0.173778,2.919299 -0.260797,4.378818 0.202932,0.875869 0.40577,1.751614 0.608526,2.627292 0.666578,1.255372 1.333045,2.51061 1.999439,3.765784 0.840446,1.080216 1.680771,2.160302 2.52103,3.240325 1.333072,0.875868 2.666003,1.751613 3.998877,2.62729 1.072269,0.292014 2.14441,0.583929 3.216487,0.875764 z" />
    </g>
  </g>
</svg>
